<?xml version="1.0" encoding="utf-8"?>
<!-- Generator: Adobe Illustrator 23.0.0, SVG Export Plug-In . SVG Version: 6.00 Build 0)  -->
<svg version="1.1" id="Layer_1" xmlns="http://www.w3.org/2000/svg" xmlns:xlink="http://www.w3.org/1999/xlink" x="0px" y="0px"
	 viewBox="0 0 40 40" style="enable-background:new 0 0 40 40;" xml:space="preserve">
<style type="text/css">
	.st0{fill:#FFFFFF;}
	.st1{clip-path:url(#SVGID_2_);fill:#3E82F1;}
	.st2{clip-path:url(#SVGID_4_);fill:#32A753;}
	.st3{clip-path:url(#SVGID_6_);fill:#F9BB00;}
	.st4{clip-path:url(#SVGID_8_);fill:#E74133;}
</style>
<rect class="st0" width="40" height="40"/>
<g>
	<defs>
		<path id="SVGID_1_" d="M28.6,20.2c0-0.6-0.1-1.3-0.2-1.8H20v3.5h4.8C24.6,23,24,23.9,23,24.6v2.3H26
			C27.7,25.3,28.6,22.9,28.6,20.2L28.6,20.2L28.6,20.2z M28.6,20.2"/>
	</defs>
	<clipPath id="SVGID_2_">
		<use xlink:href="#SVGID_1_"  style="overflow:visible;"/>
	</clipPath>
	<rect x="15" y="13.4" class="st1" width="18.6" height="18.5"/>
</g>
<g>
	<defs>
		<path id="SVGID_3_" d="M20,29c2.4,0,4.5-0.8,6-2.2L23,24.6c-0.8,0.5-1.8,0.9-3,0.9c-2.3,0-4.3-1.6-5-3.7h-3V24
			C13.4,27,16.5,29,20,29L20,29L20,29z M20,29"/>
	</defs>
	<clipPath id="SVGID_4_">
		<use xlink:href="#SVGID_3_"  style="overflow:visible;"/>
	</clipPath>
	<rect x="7" y="16.7" class="st2" width="24" height="17.3"/>
</g>
<g>
	<defs>
		<path id="SVGID_5_" d="M15,21.7c-0.2-0.5-0.3-1.1-0.3-1.7c0-0.6,0.1-1.2,0.3-1.7V16h-3c-0.6,1.2-1,2.6-1,4s0.3,2.8,1,4L15,21.7
			L15,21.7L15,21.7z M15,21.7"/>
	</defs>
	<clipPath id="SVGID_6_">
		<use xlink:href="#SVGID_5_"  style="overflow:visible;"/>
	</clipPath>
	<rect x="6" y="11" class="st3" width="14" height="18.1"/>
</g>
<g>
	<defs>
		<path id="SVGID_7_" d="M20,14.6c1.3,0,2.5,0.5,3.4,1.3l2.6-2.6c-1.6-1.5-3.6-2.3-6-2.3c-3.5,0-6.6,2-8,5l3,2.3
			C15.7,16.2,17.7,14.6,20,14.6L20,14.6L20,14.6z M20,14.6"/>
	</defs>
	<clipPath id="SVGID_8_">
		<use xlink:href="#SVGID_7_"  style="overflow:visible;"/>
	</clipPath>
	<rect x="7" y="6" class="st4" width="24.1" height="17.3"/>
</g>
</svg>
